<svg width="18" height="17" viewBox="0 0 18 17" fill="none" xmlns="http://www.w3.org/2000/svg">
<path d="M3.375 15.8126C3.375 15.5587 3.46875 15.3829 3.65625 15.2657C3.78125 15.1876 3.86328 15.1876 9 15.1876C14.1367 15.1876 14.2188 15.1876 14.3438 15.2657C14.5312 15.3829 14.625 15.5587 14.625 15.8126C14.625 16.0665 14.5312 16.2423 14.3438 16.3595C14.2188 16.4376 14.1367 16.4376 9 16.4376C3.86328 16.4376 3.78125 16.4376 3.65625 16.3595C3.46875 16.2423 3.375 16.0665 3.375 15.8126Z" fill="white"/>
<path d="M7.96871 2.69933C7.20699 1.94933 7.45309 0.695421 8.44528 0.277452C8.63668 0.199327 8.72262 0.187609 9.03903 0.195421C9.49215 0.211046 9.76168 0.320421 10.0468 0.605577C10.625 1.1837 10.6172 2.11339 10.0312 2.69542L9.84371 2.88292L10.3632 4.26573C10.6797 5.10948 10.9297 5.72276 11.0117 5.83995C11.4297 6.46495 12.1914 6.77745 12.914 6.62901C13.3359 6.54308 13.5586 6.39073 14.3945 5.63292C14.832 5.23448 15.1875 4.89073 15.1836 4.86339C15.1797 4.83605 15.1484 4.73839 15.1093 4.64073C15.0117 4.39073 15.0117 3.89855 15.1093 3.64464C15.2695 3.21886 15.5703 2.91808 15.9843 2.76573C16.3047 2.64464 16.8203 2.66417 17.1328 2.81261C18.0429 3.23839 18.2578 4.46495 17.5468 5.1837C17.3632 5.3712 17.0117 5.5587 16.7695 5.59776C16.6562 5.6173 16.6132 5.64464 16.5976 5.70714C16.5859 5.75401 16.2812 7.27355 15.9179 9.08605C15.3086 12.1446 15.25 12.3985 15.1172 12.672C14.8437 13.2228 14.3398 13.6564 13.7578 13.84L13.4492 13.9376H4.55074L4.24215 13.84C3.66012 13.6564 3.15621 13.2228 2.88278 12.672C2.74996 12.3985 2.69137 12.1446 2.08199 9.08605C1.71871 7.27355 1.41403 5.75401 1.40231 5.70714C1.38668 5.64464 1.34371 5.6173 1.23043 5.59776C0.988244 5.5587 0.636681 5.3712 0.453088 5.1837C-0.25785 4.47276 -0.0430062 3.23839 0.86715 2.81261C1.17965 2.66417 1.69528 2.64464 2.01559 2.76573C2.42965 2.91808 2.73043 3.21886 2.89059 3.64464C2.98824 3.89855 2.98824 4.39073 2.89059 4.64073C2.85153 4.73839 2.82028 4.83605 2.81637 4.86339C2.81246 4.89073 3.16793 5.23448 3.60543 5.63292C4.44137 6.39073 4.66403 6.54308 5.0859 6.62901C5.81246 6.78136 6.56637 6.46495 6.98824 5.83995C7.07028 5.72276 7.32028 5.10948 7.63668 4.26573L8.15231 2.88292L7.96871 2.69933Z" fill="white"/>
</svg>
