<svg width="60" height="16" viewBox="0 0 60 16" fill="none" xmlns="http://www.w3.org/2000/svg">
<path d="M2.70107 15.4127H0V4.86563L2.70107 7.30946V15.4127Z" fill="white"/>
<path d="M1.67209 0.621094H0.128622V3.06492V3.19354V3.57941L11.8333 15.2841H14.2771V13.2261L1.67209 0.621094Z" fill="white"/>
<path d="M13.2481 11.4257L11.7046 9.8822V0.75H14.0198V11.4257H13.2481Z" fill="white"/>
<path d="M20.1937 0.75H17.4927L24.6955 15.2843H26.4962V13.6122L20.1937 0.75Z" fill="white"/>
<path d="M33.8277 0.878622L27.268 13.355L26.1488 11.2409L25.9818 10.9112L30.8694 0.75L33.8277 0.878622Z" fill="white"/>
<path d="M40.0015 0.620526H37.6863V15.4121H40.0015V0.620526Z" fill="white"/>
<path d="M46.0467 15.4121H43.4743H43.3457L50.1817 4.18146L51.2726 6.36328L46.0467 15.4121Z" fill="white"/>
<path d="M49.1337 12.1965L50.2913 10.2672H52.9089L53.8147 12.1965H49.1337Z" fill="white"/>
<path d="M51.1916 0.363281L50.2913 2.29262L56.851 15.2835H58.909V14.6404L51.1916 0.363281Z" fill="white"/>
</svg>
